<?xml version="1.0" encoding="UTF-8"?>
<svg width="160px" height="160px" viewBox="0 0 160 160" version="1.1" xmlns="http://www.w3.org/2000/svg" xmlns:xlink="http://www.w3.org/1999/xlink">
    <!-- Generator: Sketch 51.3 (57544) - http://www.bohemiancoding.com/sketch -->
    <title>icon-modern-office</title>
    <desc>Created with Sketch.</desc>
    <defs></defs>
    <g id="icon-modern-office" stroke="none" stroke-width="1" fill="none" fill-rule="evenodd">
        <rect id="Rectangle-path" stroke="#72C7D9" stroke-width="3.82" x="44" y="71" width="57.67" height="61.41"></rect>
        <rect id="Rectangle-path" fill="#CBCAC9" fill-rule="nonzero" x="51" y="110" width="45.57" height="3.8"></rect>
        <rect id="Rectangle-path" fill="#CBCAC9" fill-rule="nonzero" x="51" y="118" width="22.79" height="3.8"></rect>
        <polygon id="Shape" fill="#EA6651" fill-rule="nonzero" points="53.69 104.85 51 102.17 62.92 90.24 68.21 95.53 78.8 84.95 84.08 90.24 93.32 81 96.01 83.69 84.08 95.62 78.8 90.33 68.21 100.91 62.92 95.62"></polygon>
        <polygon id="Shape" fill="#EA6651" fill-rule="nonzero" points="96.09 89.08 92.29 89.08 92.29 83.8 87 83.8 87 80 96.09 80"></polygon>
        <path d="M123.9,26.0000022 C111.24846,26.0055245 100.99632,36.2651249 101.000001,48.9166659 C101.003682,61.568207 111.26179,71.8218397 123.913332,71.8199998 C136.564873,71.8181598 146.819999,61.5615438 146.82,48.9100022 C146.820001,42.8321594 144.404903,37.0033953 140.106281,32.7066493 C135.80766,28.4099033 129.977842,25.9973493 123.9,26.0000022 Z" id="Shape" stroke="#EE846E" stroke-width="2.86"></path>
        <path d="M124,30 L124,49 L143,49 C143,38.5065898 134.49341,30 124,30 Z" id="Shape" fill="#34BAD0" fill-rule="nonzero"></path>
        <rect id="Rectangle-path" fill="#CBCAC9" fill-rule="nonzero" x="123" y="38" width="2.15" height="8.61"></rect>
        <rect id="Rectangle-path" fill="#CBCAC9" fill-rule="nonzero" x="126" y="48" width="8.61" height="2.15"></rect>
        <path d="M128,49 C128,51.209139 126.209139,53 124,53 C121.790861,53 120,51.209139 120,49 C120,46.790861 121.790861,45 124,45 C126.209139,45 128,46.790861 128,49 Z" id="Shape" fill="#EE846E" fill-rule="nonzero"></path>
        <path d="M124.040006,34.1592605 C123.449242,34.1373652 122.985866,33.644571 123.00033,33.0535783 C123.014793,32.4625855 123.501721,31.9930484 124.092848,32.0000779 C124.683976,32.0071074 125.1596,32.488091 125.160006,33.0792605 C125.160207,33.3727614 125.040948,33.6537039 124.829673,33.8574334 C124.618398,34.0611628 124.333306,34.170131 124.040006,34.1592605 Z" id="Shape" fill="#F6F8FC" fill-rule="nonzero"></path>
        <path d="M116.618811,36.016054 C116.239791,36.2342118 115.766619,36.2022651 115.420363,35.9351394 C115.074107,35.6680137 114.92312,35.2184416 115.037944,34.7964643 C115.152768,34.374487 115.510735,34.0634058 115.944603,34.0085586 C116.37847,33.9537115 116.80259,34.1659256 117.018811,34.546054 C117.312656,35.0626471 117.133899,35.7195784 116.618811,36.016054 Z" id="Shape" fill="#F6F8FC" fill-rule="nonzero"></path>
        <path d="M111.016318,41.6183415 C110.798165,41.9977487 110.372604,42.2079906 109.938714,42.1507153 C109.504825,42.0934401 109.148396,41.7799723 109.036166,41.3569532 C108.923937,40.9339341 109.078097,40.4850039 109.42653,40.2201736 C109.774963,39.9553434 110.248776,39.9269759 110.626318,40.1483415 C110.874077,40.2905285 111.054695,40.5258821 111.127948,40.8019906 C111.201202,41.078099 111.161008,41.3720353 111.016318,41.6183415 Z" id="Shape" fill="#F6F8FC" fill-rule="nonzero"></path>
        <path d="M109.159986,49.0700462 C109.164028,49.5086591 108.902388,49.9061522 108.497924,50.075875 C108.093459,50.2455977 107.626516,50.153835 107.316356,49.8436756 C107.006197,49.5335163 106.914434,49.0665732 107.084157,48.6621083 C107.25388,48.2576435 107.651373,47.9960034 108.089986,48.0000462 C108.678668,48.0054722 109.15456,48.4813637 109.159986,49.0700462 Z" id="Shape" fill="#F6F8FC" fill-rule="nonzero"></path>
        <path d="M111.011695,56.5374125 C111.233061,56.9149545 111.204693,57.3887676 110.939863,57.7372007 C110.675033,58.0856337 110.226103,58.2397937 109.803083,58.1275642 C109.380064,58.0153346 109.066597,57.6589057 109.009321,57.2250161 C108.952046,56.7911265 109.162288,56.3655657 109.541695,56.1474125 C109.788001,56.0027226 110.081938,55.9625288 110.358046,56.0357821 C110.634155,56.1090354 110.869508,56.289653 111.011695,56.5374125 Z" id="Shape" fill="#F6F8FC" fill-rule="nonzero"></path>
        <path d="M116.612144,62.1474125 C117.12046,62.4460174 117.29148,63.099528 116.994593,63.6088498 C116.697707,64.1181716 116.044778,64.2913977 115.534456,63.9962331 C115.024135,63.7010685 114.848704,63.0487281 115.142144,62.5374125 C115.284331,62.289653 115.519684,62.1090354 115.795793,62.0357821 C116.071901,61.9625288 116.365837,62.0027226 116.612144,62.1474125 Z" id="Shape" fill="#F6F8FC" fill-rule="nonzero"></path>
        <path d="M124.080423,64.0000508 C124.674264,64.0001527 125.15662,64.4796767 125.160218,65.0735073 C125.163816,65.6673378 124.687306,66.1526716 124.093509,66.1599693 C123.499713,66.1672669 123.01142,65.6937905 123.000423,65.1000508 C122.992256,64.8093642 123.102755,64.5278741 123.306487,64.3203687 C123.51022,64.1128633 123.789635,63.9972184 124.080423,64.0000508 Z" id="Shape" fill="#F6F8FC" fill-rule="nonzero"></path>
        <path d="M131.454054,62.1474125 C131.700361,62.0027226 131.994297,61.9625288 132.270405,62.0357821 C132.546514,62.1090354 132.781867,62.289653 132.924054,62.5374125 C133.213845,63.0521416 133.040894,63.7040343 132.534054,64.0074125 C132.027816,64.2419209 131.426278,64.0522376 131.146128,63.5697571 C130.865978,63.0872765 130.999436,62.4708213 131.454054,62.1474125 Z" id="Shape" fill="#F6F8FC" fill-rule="nonzero"></path>
        <path d="M137.148342,56.5339083 C137.448226,56.022451 138.104357,55.8483754 138.618342,56.1439083 C138.997749,56.3620615 139.207991,56.7876223 139.150715,57.2215119 C139.09344,57.6554015 138.779972,58.0118304 138.356953,58.1240599 C137.933934,58.2362895 137.485004,58.0821295 137.220174,57.7336964 C136.955343,57.3852634 136.926976,56.9114502 137.148342,56.5339083 Z" id="Shape" fill="#F6F8FC" fill-rule="nonzero"></path>
        <path d="M139.000072,49.0770744 C139.001291,48.6332309 139.273935,48.2353234 139.687405,48.0739517 C140.100876,47.91258 140.570977,48.0206043 140.872529,48.3462805 C141.174081,48.6719567 141.245678,49.148967 141.053025,49.548821 C140.860371,49.948675 140.442698,50.1899502 140.000072,50.1570744 C139.432749,50.1199178 138.993543,49.6455754 139.000072,49.0770744 Z" id="Shape" fill="#F6F8FC" fill-rule="nonzero"></path>
        <path d="M137.144919,41.6167652 C137.001046,41.3692399 136.962372,41.0743814 137.037544,40.7981257 C137.112715,40.52187 137.295462,40.2872623 137.544919,40.1467652 C137.789696,40.002526 138.08213,39.9625879 138.35662,40.0359105 C138.631109,40.109233 138.864674,40.2896778 139.004919,40.5367652 C139.242398,40.8705921 139.27055,41.3100466 139.077608,41.6714468 C138.884666,42.032847 138.503851,42.253965 138.094336,42.2423786 C137.684821,42.2307922 137.317118,41.9884964 137.144919,41.6167652 Z" id="Shape" fill="#F6F8FC" fill-rule="nonzero"></path>
        <path d="M131.546054,36.0188113 C131.165926,35.8025898 130.953711,35.3784704 131.008559,34.9446028 C131.063406,34.5107351 131.374487,34.1527678 131.796464,34.037944 C132.218442,33.9231203 132.668014,34.0741071 132.935139,34.4203631 C133.202265,34.7666191 133.234212,35.2397909 133.016054,35.6188113 C132.719578,36.1338988 132.062647,36.3126556 131.546054,36.0188113 Z" id="Shape" fill="#F6F8FC" fill-rule="nonzero"></path>
        <path d="M114,119.88 L120.13,118.13 L121.89,112 L123.64,118.13 L129.77,119.88 L123.64,121.62 L121.89,127.75 L120.14,121.62 L114,119.88 Z M121.88,115.88 L121,118.98 L117.91,119.85 L121,120.73 L121.88,123.83 L122.76,120.73 L125.85,119.85 L122.76,118.98 L121.88,115.88 Z" id="Shape" fill="#FFFFFF" fill-rule="nonzero"></path>
        <path d="M130,85.55 L135.12,84.12 L136.58,79 L138.04,84.12 L143.17,85.58 L138.04,87.05 L136.58,92.12 L135.12,87 L130,85.55 Z M136.58,82.88 L135.99,84.96 L133.9,85.55 L135.99,86.15 L136.58,88.23 L137.18,86.15 L139.27,85.55 L137.18,84.96 L136.58,82.88 Z" id="Shape" fill="#FFFFFF" fill-rule="nonzero"></path>
        <rect id="Rectangle-path" fill="#B6BCBE" fill-rule="nonzero" transform="translate(109.285319, 104.424400) rotate(-29.990000) translate(-109.285319, -104.424400) " x="108.750319" y="100.7794" width="1.07" height="7.29"></rect>
        <path d="M121.000004,90.0617949 C120.999228,89.7824014 121.106757,89.5135788 121.300004,89.3117949 C121.717496,88.8960684 122.392513,88.8960684 122.810004,89.3117949 L139.230004,105.151795 C139.608475,105.570585 139.596529,106.211346 139.20271,106.615737 C138.808891,107.020128 138.168671,107.049041 137.740004,106.681795 L121.330004,90.8217949 C121.12145,90.6237247 121.002339,90.3494079 121.000004,90.0617949 Z" id="Shape" fill="#EE846E" fill-rule="nonzero"></path>
        <rect id="Rectangle-path" fill="#34BAD0" fill-rule="nonzero" transform="translate(140.412156, 119.180309) rotate(-42.270000) translate(-140.412156, -119.180309) " x="139.877156" y="92.3953093" width="1.07" height="53.57"></rect>
        <polygon id="Shape" fill="#FFFFFF" fill-rule="nonzero" points="33.1 80.2 32.19 77.01 29 76.1 32.19 75.19 33.1 72 34.01 75.19 37.2 76.1 34.01 77.01"></polygon>
        <rect id="Rectangle-path" fill="#34BAD0" fill-rule="nonzero" transform="translate(50.757078, 46.198265) rotate(-15.000000) translate(-50.757078, -46.198265) " x="50.1320781" y="37.8782648" width="1.25" height="16.64"></rect>
        <rect id="Rectangle-path" fill="#B6BCBE" fill-rule="nonzero" transform="translate(26.793442, 44.572407) rotate(-29.630000) translate(-26.793442, -44.572407) " x="26.1684417" y="25.8624071" width="1.25" height="37.42"></rect>
        <rect id="Rectangle-path" fill="#EE846E" fill-rule="nonzero" transform="translate(16.326020, 66.324120) rotate(-45.010000) translate(-16.326020, -66.324120) " x="15.7010197" y="58.0041204" width="1.25" height="16.64"></rect>
        <path d="M2.48519574,50.4051544 C1.79954874,50.314193 1.23621552,49.8191512 1.05789286,49.1508797 C0.879570202,48.4826082 1.12137823,47.7727212 1.67055566,47.3522572 C2.21973308,46.9317932 2.96812096,46.8835615 3.56672679,47.2300537 C4.16533261,47.576546 4.49626266,48.2495214 4.40519574,48.9351544 C4.2808636,49.8712377 3.42129811,50.5293425 2.48519574,50.4051544 Z" id="Shape" fill="#FFFFFF" fill-rule="nonzero"></path>
        <path d="M22.4560933,53.6260933 C22.0636764,53.6316485 21.6921659,53.4496083 21.4560933,53.1360933 L5.25609333,32.0160933 C4.83635693,31.4638086 4.9438086,30.6758297 5.49609334,30.2560933 C6.04837808,29.8363569 6.83635691,29.9438086 7.25609333,30.4960933 L23.4460933,51.6160933 C23.8657757,52.166371 23.7630896,52.952143 23.2160933,53.3760933 C22.9973407,53.5411093 22.7300905,53.6290206 22.4560933,53.6260933 Z" id="Shape" fill="#34BAD0" fill-rule="nonzero"></path>
        <path d="M48.52,9.07 L38.05,9.07 L43.28,0 L48.52,9.07 Z M40.21,7.82 L46.36,7.82 L43.28,2.5 L40.21,7.82 Z" id="Shape" fill="#FFFFFF" fill-rule="nonzero"></path>
    </g>
</svg>