<?xml version="1.0" encoding="UTF-8"?>
<svg width="160px" height="160px" viewBox="0 0 160 160" version="1.1" xmlns="http://www.w3.org/2000/svg" xmlns:xlink="http://www.w3.org/1999/xlink">
    <!-- Generator: Sketch 51.3 (57544) - http://www.bohemiancoding.com/sketch -->
    <title>icon-cloud</title>
    <desc>Created with Sketch.</desc>
    <defs></defs>
    <g id="icon-cloud" stroke="none" stroke-width="1" fill="none" fill-rule="evenodd">
        <path d="M86.0222241,103.023236 L127.686738,103.023236 L128.257101,103.023236 C131.995819,103.082621 135.074791,100.099933 135.134176,96.3612145 C135.193562,92.6224961 132.210874,89.5435244 128.472155,89.4841386 C128.539303,88.9037079 128.573642,88.3199504 128.575008,87.7356502 C128.57466,80.884808 123.870137,74.9306455 117.205158,73.3456845 L117.121006,73.3456845 L116.559994,73.2241319 L116.37299,73.2241319 L115.896129,73.1493302 L115.606273,73.1493302 L115.204214,73.1025792 L114.792805,73.1025792 L114.493599,73.1025792 L113.764283,73.1025792 C112.411401,73.1030605 111.064948,73.2886696 109.762395,73.6542413 C108.596203,64.7448448 102.066722,57.4721102 93.3340845,55.3558899 L93.2686331,55.3558899 L92.9320257,55.271738 L92.7824224,55.271738 L92.4738656,55.2062866 L92.2868615,55.2062866 L92.0063554,55.2062866 L91.7726002,55.2062866 L91.5107945,55.0192825 L91.0900353,54.9631812 L90.8749805,54.9631812 L90.5383732,54.9631812 L90.3326686,54.9631812 L90.0241119,54.9631812 L89.8090572,54.9631812 L89.4911502,54.9631812 L88.2569231,54.9631812 C76.3460469,54.9626466 66.6585975,64.5583115 66.5457468,76.468653 L66.5457468,76.6089061" id="Shape" stroke="#72C7D9" stroke-width="3.82"></path>
        <path d="M22.5156308,106.782018 C22.5205942,101.409701 26.2098374,96.7420734 31.4357265,95.4963205 L31.9406376,95.4028184 L32.4642491,95.3467172 L32.688654,95.3467172 L33.006561,95.3467172 C33.1094132,95.3467172 33.2216157,95.3467172 33.324468,95.3467172 L33.5675733,95.3467172 L34.1846868,95.3467172 C35.2466737,95.345411 36.303797,95.4901362 37.3263557,95.7768266 C38.2267433,88.7811858 43.3405898,83.0615566 50.192238,81.3868609 L50.5007948,81.3307597 L50.8561026,81.3307597 L51.0150561,81.1998568 L51.2301108,81.1998568 L51.6134692,81.1998568 L51.9500766,81.1531058 L52.3895362,81.1531058 L52.791595,81.1531058 L54.1754254,81.1531058 C63.4989176,81.1418545 71.1014685,88.6235978 71.2395498,97.9460742 C74.4061892,98.4159337 77.2329813,100.208533 78.906718,102.920383 C78.9721694,103.023236 79.0282706,103.135438 79.0937221,103.247641 L79.3087768,103.630999 C79.3087768,103.630999 79.3087768,103.724501 79.3742282,103.780602 C79.4234447,103.868185 79.4671635,103.958745 79.5051311,104.051758 L79.5892829,104.220062 C79.5892829,104.313564 79.6547344,104.397716 79.6921352,104.481868 L79.776287,104.678222 L79.8604389,104.930677 C79.8895616,105.004017 79.9145349,105.078937 79.9352405,105.155082 L80.0193924,105.398188 C80.0368483,105.477262 80.0586993,105.555301 80.0848438,105.631943 L80.140945,105.865698 C80.1671295,105.948657 80.1889762,106.032923 80.2063965,106.118154 C80.2063965,106.202305 80.2063965,106.277107 80.2063965,106.351909 C80.2108722,106.442239 80.2108722,106.532735 80.2063965,106.623065 C80.2108886,106.697799 80.2108886,106.772735 80.2063965,106.84747 C80.2063965,106.940972 80.2063965,107.043824 80.2063965,107.137326 L80.2063965,107.352381 L80.2063965,107.688988 C80.2063965,107.745089 80.2063965,107.80119 80.2063965,107.857292 C80.2063965,107.913393 80.2063965,108.203249 80.2063965,108.380903 C80.2063965,108.558557 80.2063965,108.68946 80.2063965,108.848413 C80.2155709,109.082008 80.2155709,109.213232 80.2063965,109.343974 C80.2105907,109.412478 80.2105907,109.481175 80.2063965,109.549679 C80.2063965,109.549679 80.2063965,109.643181 80.2063965,109.680582 C79.5446986,114.861961 75.144597,118.750051 69.9211708,118.768981 L23.2262464,118.768981 C23.0767887,118.778316 22.9268942,118.778316 22.7774366,118.768981 C19.8442985,118.815457 17.4288442,116.475354 17.3823685,113.542216 C17.3358927,110.609078 19.6759948,108.193624 22.6091329,108.147148 C22.5464655,107.54337 22.5152982,107.088326 22.5156308,106.782018 Z" id="Shape" stroke="#EE846E" stroke-width="2.86"></path>
        <polygon id="Rectangle-path" fill="#F6F8FC" fill-rule="nonzero" points="133.896685 113.083941 135.476738 113.063532 135.573345 120.543073 133.993292 120.563481"></polygon>
        <polygon id="Rectangle-path" fill="#F6F8FC" fill-rule="nonzero" points="141.996998 111.37774 143.355442 110.570514 147.181408 117.009055 145.822964 117.816281"></polygon>
        <polygon id="Rectangle-path" fill="#F6F8FC" fill-rule="nonzero" points="148.150195 105.821197 148.923029 104.442897 155.455683 108.105854 154.68285 109.484154"></polygon>
        <polygon id="Rectangle-path" fill="#F6F8FC" fill-rule="nonzero" points="150.710088 96.3632798 158.198994 96.2678592 158.219126 97.8479156 150.73022 97.9433362"></polygon>
        <polygon id="Rectangle-path" fill="#F6F8FC" fill-rule="nonzero" points="148.204872 88.4868461 154.643413 84.6608799 155.450639 86.0193235 149.012098 89.8452897"></polygon>
        <polygon id="Rectangle-path" fill="#F6F8FC" fill-rule="nonzero" points="142.09399 82.9089763 145.759227 76.377601 147.137258 77.1509156 143.472021 83.6822909"></polygon>
        <rect id="Rectangle-path" fill="#F6F8FC" fill-rule="nonzero" x="13.3056788" y="77.151218" width="1.13137482" height="4.31044457"></rect>
        <polygon id="Rectangle-path" fill="#F6F8FC" fill-rule="nonzero" points="4.26367187 83.0362067 4.82901724 82.0562099 8.56272382 84.210129 7.99737846 85.1901258"></polygon>
        <polygon id="Rectangle-path" fill="#F6F8FC" fill-rule="nonzero" points="4.27083037 92.8190629 8.00416097 90.6644922 8.56967736 91.6443902 4.83634676 93.798961"></polygon>
        <rect id="Rectangle-path" fill="#F6F8FC" fill-rule="nonzero" x="13.315029" y="94.3929963" width="1.13137482" height="4.30109436"></rect>
        <polygon id="Rectangle-path" fill="#F6F8FC" fill-rule="nonzero" points="19.1944665 91.6477871 19.7604959 90.6681853 23.4926979 92.8247105 22.9266685 93.8043123"></polygon>
        <polygon id="Rectangle-path" fill="#F6F8FC" fill-rule="nonzero" points="19.1886635 84.2045822 22.9219941 82.0500115 23.4875105 83.0299095 19.7541799 85.1844802"></polygon>
        <polygon id="Rectangle-path" fill="#EE846E" fill-rule="nonzero" points="62.813876 143.671182 78.9769973 121.481615 79.8914856 122.147738 63.7283643 144.337306"></polygon>
        <polygon id="Rectangle-path" fill="#34BAD0" fill-rule="nonzero" points="89.4820366 123.920395 97.5577869 112.821381 99.3874609 114.15267 91.3117105 125.251683"></polygon>
        <polygon id="Rectangle-path" fill="#EE846E" fill-rule="nonzero" points="137.615707 64.9546546 148.909655 49.4326686 151.46515 51.2920716 140.171202 66.8140576"></polygon>
        <polygon id="Rectangle-path" fill="#34BAD0" fill-rule="nonzero" points="134.65368 44.1079869 157.230738 13.0561322 158.50881 13.9853876 135.931752 45.0372424"></polygon>
        <path d="M109.07983,48.2310335 L107.677299,47.5391184 L111.36128,34.4488312 L103.048948,34.4488312 L118.67314,12.9433594 L120.075671,13.6259243 L116.39169,26.7629626 L124.704023,26.7629626 L109.07983,48.2310335 Z M106.181266,32.8312457 L113.474426,32.8312457 L110.388859,43.7429351 L121.609105,28.3431472 L114.306595,28.3431472 L117.401512,17.4314578 L106.181266,32.8312457 Z" id="Shape" fill="#F6F8FC" fill-rule="nonzero"></path>
        <path d="M54.5494336,66.0992755 L53.6144131,65.6504657 L56.0548166,56.9641251 L50.5662462,56.9641251 L60.8514719,42.7705137 L61.7864924,43.2193236 L59.4302407,51.9056642 L64.9281613,51.9056642 L54.5494336,66.0992755 Z M52.6139411,55.954303 L57.438647,55.954303 L55.4190027,63.1633111 L62.8243651,52.9809377 L57.9996593,52.9809377 L60.0286538,45.7719296 L52.6139411,55.954303 Z" id="Shape" fill="#F6F8FC" fill-rule="nonzero"></path>
    </g>
</svg>