<?xml version="1.0" encoding="UTF-8"?>
<svg width="160px" height="160px" viewBox="0 0 160 160" version="1.1" xmlns="http://www.w3.org/2000/svg" xmlns:xlink="http://www.w3.org/1999/xlink">
    <!-- Generator: Sketch 51.3 (57544) - http://www.bohemiancoding.com/sketch -->
    <title>icon-ai</title>
    <desc>Created with Sketch.</desc>
    <defs></defs>
    <g id="icon-ai" stroke="none" stroke-width="1" fill="none" fill-rule="evenodd">
        <rect id="Rectangle-path" fill="#34BAD0" fill-rule="nonzero" x="22.0525805" y="107.281811" width="12.6123797" height="1.81003493"></rect>
        <rect id="Rectangle-path" fill="#34BAD0" fill-rule="nonzero" x="17.8116997" y="91.8407551" width="5.27565581" height="1"></rect>
        <rect id="Rectangle-path" fill="#EE846E" fill-rule="nonzero" x="14.418995" y="113.286667" width="5.27565581" height="1.81003493"></rect>
        <rect id="Rectangle-path" fill="#B6BCBE" fill-rule="nonzero" x="22.0525805" y="94.4142645" width="12.6123797" height="1"></rect>
        <rect id="Rectangle-path" fill="#EE846E" fill-rule="nonzero" x="0" y="101.276956" width="28.8040629" height="1"></rect>
        <polygon id="Rectangle-path" fill="#B6BCBE" fill-rule="nonzero" points="33.0788708 117.354812 33.7087194 116.718013 34.8180653 117.840385 34.1882167 118.477185"></polygon>
        <polygon id="Rectangle-path" fill="#B6BCBE" fill-rule="nonzero" points="36.4715755 119.928544 37.1012043 119.291522 38.2109375 120.413503 37.5813087 121.050525"></polygon>
        <polygon id="Rectangle-path" fill="#B6BCBE" fill-rule="nonzero" points="36.4715755 117.840189 37.5811151 116.718013 38.2108538 117.354924 37.1013142 118.4771"></polygon>
        <polygon id="Rectangle-path" fill="#B6BCBE" fill-rule="nonzero" points="33.0788708 120.413699 34.1884104 119.291522 34.8181491 119.928433 33.7086095 121.05061"></polygon>
        <polygon id="Rectangle-path" fill="#B6BCBE" fill-rule="nonzero" points="6.7854094 91.6256711 7.42136747 90.9829187 8.53051968 92.105487 7.89456161 92.7482394"></polygon>
        <polygon id="Rectangle-path" fill="#B6BCBE" fill-rule="nonzero" points="9.32993792 94.1935614 9.95945675 93.5564281 11.0693836 94.678213 10.4398647 95.3153463"></polygon>
        <polygon id="Rectangle-path" fill="#B6BCBE" fill-rule="nonzero" points="9.32993792 92.1050953 10.4394775 90.9829187 11.0692162 91.6198298 9.95967661 92.7420064"></polygon>
        <polygon id="Rectangle-path" fill="#B6BCBE" fill-rule="nonzero" points="6.7854094 94.6786047 7.89494898 93.5564281 8.52468766 94.1933391 7.41514808 95.3155158"></polygon>
        <rect id="Rectangle-path" fill="#34BAD0" fill-rule="nonzero" x="119.04" y="47.97" width="14.87" height="2.11"></rect>
        <rect id="Rectangle-path" fill="#EE846E" fill-rule="nonzero" x="137.04" y="40.97" width="6.22" height="2.11"></rect>
        <rect id="Rectangle-path" fill="#B6BCBE" fill-rule="nonzero" x="119.04" y="63.97" width="14.87" height="1.05"></rect>
        <rect id="Rectangle-path" fill="#EE846E" fill-rule="nonzero" x="126.04" y="55.97" width="33.96" height="1.05"></rect>
        <rect id="Rectangle-path" fill="#B6BCBE" fill-rule="nonzero" transform="translate(119.065404, 38.995206) rotate(-45.020000) translate(-119.065404, -38.995206) " x="118.540404" y="38.070206" width="1.05" height="1.85"></rect>
        <rect id="Rectangle-path" fill="#B6BCBE" fill-rule="nonzero" transform="translate(116.065206, 34.995404) rotate(-44.980000) translate(-116.065206, -34.995404) " x="115.540206" y="34.0704035" width="1.05" height="1.85"></rect>
        <rect id="Rectangle-path" fill="#B6BCBE" fill-rule="nonzero" transform="translate(116.065305, 38.995305) rotate(-45.000000) translate(-116.065305, -38.995305) " x="115.140305" y="38.4703048" width="1.85" height="1.05"></rect>
        <rect id="Rectangle-path" fill="#B6BCBE" fill-rule="nonzero" transform="translate(119.065305, 34.995305) rotate(-45.000000) translate(-119.065305, -34.995305) " x="118.140305" y="34.4703048" width="1.85" height="1.05"></rect>
        <path d="M33.011104,87.4144164 C31.6655566,87.4144119 30.4526623,86.5941805 29.9385395,85.3365651 C29.4244167,84.0789496 29.7104349,82.6319137 30.6630949,81.6708612 C31.615755,80.7098088 33.0472215,80.4242301 34.2893574,80.9474191 C35.5314932,81.470608 36.3393872,82.6994077 36.3359546,84.0602758 C36.3312787,85.9141032 34.8440611,87.4144224 33.011104,87.4144164 Z M33.011104,81.6068635 C31.6713806,81.6068635 30.5853202,82.7052936 30.5853202,84.0602758 C30.5853202,85.415258 31.6713806,86.5136881 33.011104,86.5136881 C34.3508275,86.5136881 35.4368879,85.415258 35.4368879,84.0602758 C35.4368879,83.4095904 35.181315,82.7855554 34.7263923,82.3254513 C34.2714695,81.8653473 33.6544619,81.6068635 33.011104,81.6068635 Z" id="Shape" fill="#EE846E" fill-rule="nonzero"></path>
        <path d="M152.04,70.97 L144.04,70.97 L144.04,62.97 L152.04,62.97 L152.04,70.97 Z M145.13,69.91 L150.98,69.91 L150.98,64.06 L145.13,64.06 L145.13,69.91 Z" id="Shape" fill="#34BAD0" fill-rule="nonzero"></path>
        <path d="M36.46,65.84 C36.7917593,45.678285 53.2305556,29.5077623 73.395,29.5077623 C93.5594444,29.5077623 109.998241,45.678285 110.33,65.84 C110.33,66.4 110.33,66.96 110.33,67.51 L115.48,76.45 L122.27,88.2 L113.69,88.2 L113.69,102.78 C113.69,105.432165 112.636432,107.975704 110.761068,109.851068 C108.885704,111.726432 106.342165,112.78 103.69,112.78 L87.92,112.78 L87.92,131.87 L47.25,131.87 L47.25,91.93 C40.3295031,85.0125343 36.4470777,75.6249089 36.46,65.84 Z" id="Shape" stroke="#72C7D9" stroke-width="3.82"></path>
        <rect id="Rectangle-path" stroke="#EE846E" stroke-width="2.86" x="60.02" y="54.97" width="24.02" height="24.02"></rect>
        <path d="M66.8,49.43 L66.8,39.58" id="Shape" stroke="#EE846E" stroke-width="2.86"></path>
        <path d="M77.88,49.43 L77.88,39.58" id="Shape" stroke="#EE846E" stroke-width="2.86"></path>
        <path d="M66.8,94.39 L66.8,84.54" id="Shape" stroke="#EE846E" stroke-width="2.86"></path>
        <path d="M77.88,94.39 L77.88,84.54" id="Shape" stroke="#EE846E" stroke-width="2.86"></path>
        <path d="M89.89,61.44 L99.75,61.44" id="Shape" stroke="#EE846E" stroke-width="2.86"></path>
        <path d="M89.89,72.53 L99.75,72.53" id="Shape" stroke="#EE846E" stroke-width="2.86"></path>
        <path d="M44.93,61.44 L54.79,61.44" id="Shape" stroke="#EE846E" stroke-width="2.86"></path>
        <path d="M44.93,72.53 L54.79,72.53" id="Shape" stroke="#EE846E" stroke-width="2.86"></path>
        <g id="Group" transform="translate(18.000000, 128.000000)" fill="#F6F8FC" fill-rule="nonzero">
            <path d="M11.05,5.16 C10.8401318,5.16 10.67,4.9898682 10.67,4.78 L10.67,0.52 C10.67,0.310131795 10.8401318,0.14 11.05,0.14 C11.2598682,0.14 11.43,0.310131795 11.43,0.52 L11.43,4.78 C11.43,4.9898682 11.2598682,5.16 11.05,5.16 Z" id="Shape"></path>
            <path d="M11.05,21 C10.8401318,21 10.67,20.8298682 10.67,20.62 L10.67,16.31 C10.67,16.1001318 10.8401318,15.93 11.05,15.93 C11.2598682,15.93 11.43,16.1001318 11.43,16.31 L11.43,20.57 C11.4444883,20.6791217 11.410945,20.7891639 11.3380508,20.8716495 C11.2651565,20.9541351 11.1600751,21.0009576 11.05,21 Z" id="Shape"></path>
            <path d="M21.08,10.93 L16.81,10.93 C16.6001318,10.93 16.43,10.7598682 16.43,10.55 C16.43,10.3401318 16.6001318,10.17 16.81,10.17 L21.08,10.17 C21.2898682,10.17 21.46,10.3401318 21.46,10.55 C21.46,10.7598682 21.2898682,10.93 21.08,10.93 Z" id="Shape"></path>
            <path d="M5.29,10.93 L1,10.93 C0.790131795,10.93 0.62,10.7598682 0.62,10.55 C0.62,10.3401318 0.790131795,10.17 1,10.17 L5.26,10.17 C5.4698682,10.17 5.64,10.3401318 5.64,10.55 C5.64,10.7598682 5.4698682,10.93 5.26,10.93 L5.29,10.93 Z" id="Shape"></path>
            <path d="M15.13,6.85 C15.0282851,6.85434715 14.9297182,6.81419029 14.86,6.74 C14.7879379,6.66863319 14.7473948,6.57142076 14.7473948,6.47 C14.7473948,6.36857924 14.7879379,6.27136681 14.86,6.2 L17.86,3.2 C18.0091169,3.05088313 18.2508831,3.05088314 18.4,3.20000002 C18.5491169,3.34911689 18.5491169,3.59088311 18.4,3.74 L15.4,6.74 C15.3282051,6.81110687 15.2310456,6.85069037 15.13,6.85 Z" id="Shape"></path>
            <path d="M4,18 C3.89993647,17.9958938 3.80444434,17.9569896 3.73,17.89 C3.59016946,17.7371564 3.59016946,17.5028436 3.73,17.35 L6.73,14.35 C6.87911688,14.2008831 7.12088312,14.2008831 7.27,14.35 C7.41911688,14.4991169 7.41911688,14.7408831 7.27,14.89 L4.27,17.89 C4.19760495,17.960193 4.10083625,17.9996172 4,18 Z" id="Shape"></path>
            <path d="M18.14,18 C18.0393665,17.9986061 17.9429567,17.959328 17.87,17.89 L14.87,14.89 C14.7208831,14.7408831 14.7208831,14.4991169 14.87,14.35 C15.0191169,14.2008831 15.2608831,14.2008831 15.41,14.35 L18.41,17.35 C18.4820621,17.4213668 18.5226052,17.5185792 18.5226052,17.62 C18.5226052,17.7214208 18.4820621,17.8186332 18.41,17.89 C18.337605,17.960193 18.2408362,17.9996172 18.14,18 Z" id="Shape"></path>
            <path d="M7,6.85 C6.89916375,6.84961725 6.80239505,6.81019296 6.73,6.74 L3.73,3.74 C3.59016946,3.58715636 3.59016946,3.35284364 3.73,3.2 C3.80136681,3.12793788 3.89857924,3.08739484 4,3.08739484 C4.10142076,3.08739484 4.19863319,3.12793788 4.27,3.2 L7.27,6.2 C7.40983054,6.35284364 7.40983054,6.58715636 7.27,6.74 C7.19555566,6.80698963 7.10006353,6.84589383 7,6.85 Z" id="Shape"></path>
            <path d="M11.05,13.45 C9.44694489,13.4279538 8.16368654,12.1134777 8.18017006,10.5103557 C8.19665358,8.90723376 9.50666901,7.61942198 11.1098385,7.63034266 C12.713008,7.64126335 14.0053577,8.94680225 14,10.55 C14.0001156,11.3278698 13.6877268,12.0731759 13.1330089,12.6184918 C12.578291,13.1638077 11.8277542,13.4634116 11.05,13.45 Z M11.05,8.45 C9.86258779,8.45 8.9,9.41258779 8.9,10.6 C8.9,11.7874122 9.86258779,12.75 11.05,12.75 C12.2374122,12.75 13.2,11.7874122 13.2,10.6 C13.216265,10.0203744 12.9966216,9.45896003 12.5913427,9.04425603 C12.1860638,8.62955203 11.6298463,8.39706224 11.05,8.4 L11.05,8.45 Z" id="Shape"></path>
        </g>
    </g>
</svg>