<?xml version="1.0" encoding="utf-8"?>
<!-- Generator: Adobe Illustrator 21.1.0, SVG Export Plug-In . SVG Version: 6.00 Build 0)  -->
<svg version="1.1" id="Layer_1" xmlns="http://www.w3.org/2000/svg" xmlns:xlink="http://www.w3.org/1999/xlink" x="0px" y="0px"
	 viewBox="0 0 638.1 237" style="enable-background:new 0 0 638.1 237;" xml:space="preserve">
<style type="text/css">
	.st0{opacity:5.000000e-02;}
	.st1{fill:#FFFFFF;}
</style>
<g class="st0">
	<path class="st1" d="M403.4,0c-7.1,0-12.9,5.1-14,11.8h-113c0.2,0-0.3,0-1.1,0c-3.4,0-12.8,0.6-21.8,7s-17.1,18.7-17.8,40.8
		c0,0.8,0,1.5,0,2.3c0,17.1,6.1,29,14.7,36.4c8.6,7.4,19.3,10.3,28.6,10.3c29.9,0,87.1,0,91.3,0c15,3,25.8,12.1,25.9,30.6
		c0,2.5-0.2,5.3-0.7,8.3c-2.7,18-28.6,48.5-66.4,48.3c-0.1,0-0.3,0-0.6,0H220.8c-1.2-6.5-7-11.4-13.9-11.4
		c-7.8,0-14.2,6.2-14.2,13.9c0,7.7,6.3,13.9,14.2,13.9c7,0,12.7-4.9,13.9-11.4h107.9c0.2,0,0.3,0,0.5,0
		c40.7-0.2,67.9-31.6,71.4-52.5c0.5-3.2,0.7-6.2,0.7-9c0.2-20.8-13.4-32.6-30.2-35.4h-0.3h-0.2c0,0-60.5,0-91.6,0
		c-16.6-0.2-38.2-10-38.3-41.8c0-0.7,0-1.4,0-2.1c1.5-41.7,28.9-42.7,34.6-43c0.7,0,0.9,0,0.9,0h113.3c1.3,6.3,7,11.1,13.9,11.1
		c7.8,0,14.1-6.2,14.1-13.9C417.6,6.3,411.3,0,403.4,0z"/>
	<path class="st1" d="M83.8,0.6h63.7h4.3h72.9c0,0,48.6,18.3,38.6,80.2c-10.3,63.5-61.5,80.1-77.2,81.6h-68.2l23.8-68.9h36.5
		c0,0,16.5-19.7-2.2-22.5h-35.7L91.7,208.8H10.9L83.8,0.6z"/>
	<path class="st1" d="M328.3,159.7L175.2,160l-26.4,77.1h167.3c18.1-0.1,47.4-7,72.8-21.5c7.1-4,13.9-8.7,20-14
		c12.4,6.1,23.1,7.2,23.1,7.2h123.7l7.7-22.6H423.3c1-1.4,2-2.9,2.9-4.4H565l6.2-18.3H434.1c0.4-1.4,0.7-2.9,1-4.4h137.6l6.7-18.3
		H435.8c-0.1-1.5-0.2-3-0.4-4.4H464c-2.6-4.9-3.9-11.3-4-18.3h-28.4c-0.5-1.5-1-3-1.5-4.4h30c0.3-6.1,1.4-12.4,2.9-18.3h-42.7
		c-1.1-1.5-2.2-3-3.4-4.4h47.4c2.4-7.5,5.6-14,9.3-18.3h-79.5c-7.1-3.6-13.7-5.2-18.6-5.3h-82.9c-9.5-0.2-11.4-3.9-11.5-6.6
		c0-3,3-7.2,10.3-7.4h103.8c-2.5,4.5-4.9,9.5-7.3,14.9h215.7l6-18.3H429.7l1.6-4.4h179.8l6.2-18.3H437.7l1.6-4.4h179.6l7.7-22.7
		H477.8C468,1.3,456.7,2.5,445,6.8l10.9-30.9l-178-0.3c-0.5-0.1-1.2-0.1-2.1-0.1c-12.1,0-31.7,5.5-48.8,19.1
		C209.9,8.2,195.7,30.4,195.8,63c0,1,0,2.1,0,3.2c0.4,13.6,4.2,32,12.2,47.9c7.9,15.7,20.4,29.3,38.4,30.9h0.2l81.7,0.4
		c4-0.1,7.6-0.2,10.8-0.2c6.2,0,10.9,0.4,13.2,1.5c2.2,1.2,2.8,1.6,3,5.2c-0.2,3.5-0.8,4.3-4.1,5.9c-3.4,1.4-9.8,2.2-18.8,2.1
		C331.2,159.8,329.8,159.7,328.3,159.7 M291.4,45.9c-10.5,0-17.8,7-17.8,14.7c0,3.7,1.8,7.4,5.1,10c3.3,2.5,8,3.9,13.9,3.9h82.9
		c6.5-0.1,20.2,4.9,31.7,16.6c11.5,11.7,21.3,29.9,21.3,56.6c0,27.2-19.2,47.5-43.3,61.4c-24,13.8-52.8,20.6-69,20.5H159.3
		l21.3-62.4l147.7-0.3c1.4,0,2.8,0,4.1,0c9.4,0,16.3-0.5,21.6-2.6c5.4-1.9,9-6.9,8.8-12.7c0.2-5.4-2.9-10.1-7.5-11.9
		c-4.4-1.9-9.7-2.1-16.2-2.2c-3.4,0-6.9,0.1-10.9,0.2l-81.2-0.3c-14.1-1.2-24.8-12.3-32.3-26.9c-7.4-14.6-11-32.3-11.4-44.8
		c0-1,0-2,0-3c0-30.4,12.9-50.2,28.5-62.7c15.5-12.5,34.1-17.5,44-17.5c0.6,0,1.2,0,1.8,0.1l167.8,0.2l-22.2,62.8L291.4,45.9z"/>
</g>
</svg>
