<svg xmlns="http://www.w3.org/2000/svg" viewBox="0 0 230.53 70.59"><defs><style>.cls-1{fill:#fff;}</style></defs><title>txt-apply-day</title><g id="Layer_2" data-name="Layer 2"><g id="title"><path class="cls-1" d="M133.92,10.57l-4.12,42-11.34,1.33,2.69-27.55a47,47,0,0,1-5.67,4.09,52,52,0,0,1-6.71,3.29l.93-9.42A35.42,35.42,0,0,0,119,18.77a24.92,24.92,0,0,0,5.59-7.12Z"/><path class="cls-1" d="M171.54,6.18l-4.11,42.05-11.35,1.32L158.78,22a46.65,46.65,0,0,1-5.67,4.09,52.67,52.67,0,0,1-6.71,3.29l.92-9.42a35,35,0,0,0,9.34-5.58,24.64,24.64,0,0,0,5.6-7.12Z"/><path class="cls-1" d="M191.55,3.85l5.72-.67L183,47.12l-5.67.66Z"/><path class="cls-1" d="M203.9,3.11,230.53,0l-.89,9.17-18,2.1L210,17.58a24.2,24.2,0,0,1,3.84-1.78,16.39,16.39,0,0,1,3.67-.87q6.06-.72,9.46,2.6t2.85,9a19.3,19.3,0,0,1-2.69,7.92,18.14,18.14,0,0,1-6.06,6.28,22.1,22.1,0,0,1-9.33,3,25.45,25.45,0,0,1-6.76,0A11,11,0,0,1,200.37,42a9.88,9.88,0,0,1-2.89-3.1,14.78,14.78,0,0,1-1.59-4.61l11.47-2.6a5.67,5.67,0,0,0,1.51,4,4.12,4.12,0,0,0,3.47,1,6.13,6.13,0,0,0,4-2.27,9.93,9.93,0,0,0,2.06-5.6q.36-3.69-1-5.24a4.28,4.28,0,0,0-3.93-1.24,7.86,7.86,0,0,0-3.22,1.18A12.79,12.79,0,0,0,207.59,26l-9.42-.3Z"/><path class="cls-1" d="M8.78,32.27l.1-1-1.6.31-.15-1.26a45.71,45.71,0,0,0,4.75-1l.33,1.12-1.89.5-.11,1.15L12,31.89l-.13,1.31-1.83.21L10,34.57c.59-.13,1.19-.28,1.77-.4l-.06.58a10.79,10.79,0,0,0,2.19-2.9,17.87,17.87,0,0,1-.76-3.44c-.17.27-.35.52-.52.75l-.33-.44-5.18.61L7.21,28a16,16,0,0,1-.82,1.4L5.64,37l-1.49.18.57-5.77c-.33.34-.68.69-1,1L3.36,31a13,13,0,0,0,2.85-4l1.26.49-.24.49,5.15-.6a21.16,21.16,0,0,0,1.94-5.47l1.35.09c-.17.72-.36,1.4-.55,2l2.68-.31-.15,1.47-.62.07a23,23,0,0,1-1.68,6.44,9.49,9.49,0,0,0,1.71,2.74l-1.13,1.33a10.13,10.13,0,0,1-1.48-2.36,13,13,0,0,1-2.2,2.77l-.6-1.08,0,.39c-1.48.37-3,.72-4.7,1.06l-.21-1.3c.61-.1,1.22-.22,1.82-.33l.13-1.3-1.93.22.13-1.3Zm-1.22-9.1a15.74,15.74,0,0,1-3.51,5l-.33-1.51a13.58,13.58,0,0,0,2.55-4Zm3.64-.87-.3,3,.59-.07.23-2.37L13,22.74l-.36,3.73-5.06.59.36-3.7,1.28-.15L9,25.55l.62-.07.29-3Zm3.06,5.27a15.32,15.32,0,0,0,.46,2.28,23.17,23.17,0,0,0,1-4.47l-1.15.13a18.81,18.81,0,0,1-1.38,2.77Z"/><path class="cls-1" d="M23.92,21.26a22.83,22.83,0,0,1-1.8,3.6l-1,10.34-1.56.19.78-8c-.45.54-.9,1.07-1.37,1.59l-.36-1.68a22.52,22.52,0,0,0,3.91-6.6Zm2.56.35c-.17.66-.37,1.31-.6,1.94l1.65-.19.3-3.06,1.59-.18-.3,3.05,3.29-.38-.16,1.58L29,24.75l-.31,3.18,3.86-.45-.16,1.57-3.86.45L28,34.35l-1.59.19.47-4.86-4.22.5.15-1.57,4.23-.49.31-3.18-2.17.25A17.8,17.8,0,0,1,23.59,28l-.88-1.24A15.55,15.55,0,0,0,25,21.59Z"/><path class="cls-1" d="M45.16,32.34l-1.59.18.1-1.07L37,32.23l-.11,1.09-1.59.18,1.35-13.81,9.86-1.15Zm-1.33-2.47.41-4.17-6.68.78-.41,4.17Zm.56-5.75.38-3.82-6.68.78-.38,3.82Z"/><path class="cls-1" d="M51.67,28.79a17.41,17.41,0,0,1-2.16,3.09l-1.18-.79a14.35,14.35,0,0,0,2.14-2.77Zm.56-11.32L52.08,19l2.5-.29.15-1.52L56.24,17l-.15,1.51.75-.08L56.69,20l-.74.09-.6,6.06.82-.09L56,27.53l-7.28.85.15-1.51.94-.1.59-6.07-.77.09.15-1.5.77-.09.15-1.55Zm1.61,8.83L54,25.23l-2.5.29-.11,1.07Zm.24-2.48.11-1.09-2.5.29-.11,1.09Zm-2.14-3.29-.11,1.08,2.5-.29.1-1.09Zm3.16,9.22a11.19,11.19,0,0,0,1.71-5l.73-7.47L63,16.6l-1.2,12.18a1.74,1.74,0,0,1-1.69,1.73l-1.58.19-.27-1.54c.55,0,1,0,1.5-.09q.45-.06.51-.69l.26-2.67L58.15,26a12.94,12.94,0,0,1-2.31,5.29l-1-.9-1,.76a15.47,15.47,0,0,0-1.27-2.34l1.31-.93A16.59,16.59,0,0,1,55.1,29.75Zm3.29-5.24,2.33-.27L60.94,22l-2.34.27ZM61.3,18.3,59,18.57l-.22,2.24,2.33-.28Z"/><path class="cls-1" d="M9,69.73c-.27-1.29-.36-1.65-.49-2.24-2.69,1.14-4.11,1.71-7.34,2.83l-.7.27L0,66.79c.37-.08.56-.11,1.3-.31L2.42,51.41c.06-.87.08-1.49.07-2.37a23,23,0,0,0,2.56-.27L10.48,48A23.26,23.26,0,0,0,13,47.55c-.09.58-.15,1-.25,2.37l-.6,8.18c-.07.92-.09,1.52-.08,2.06-.65,0-1.14.08-2,.2L5.29,61,5,65.37c1.12-.4,2-.72,2.64-1-.29-.77-.38-1.1-.81-2.15l3.28-1.6a43.75,43.75,0,0,1,2.44,7c0-.2,0-.2,0-.62l1.27-17.26c.08-1,.11-1.81.1-2.35.81,0,1.51-.11,2.22-.21l5.48-.77c.88-.13,1.32-.21,2.25-.42a23.53,23.53,0,0,0-.27,2.38l-1,13.82c-.21,2.84-1.11,3.6-4.95,4.14l-.63.09a11.32,11.32,0,0,0-.42-3.8,14.43,14.43,0,0,0,1.65-.09c.61-.08.77-.23.8-.72L19.9,50.2l-2.52.35-1.18,16a23.64,23.64,0,0,0-.07,3l-3.92.55a19.56,19.56,0,0,0,.29-2.26ZM5.53,57.79l3.12-.44L8.76,56l-3.13.44Zm3.46-5,.1-1.34L6,51.92l-.1,1.34Z"/><path class="cls-1" d="M43.26,43.44A23.14,23.14,0,0,0,46,42.93c-.15,1.08-.27,2-.33,2.83L44.46,61.89a32.28,32.28,0,0,0-.1,3.39l-4.11.58.09-1.24L30.17,66.05l-.09,1.24-4,.57c.17-1,.3-2.18.39-3.43l1.19-16.11c.07-.92.09-1.81.09-2.82a26.79,26.79,0,0,0,2.8-.27ZM30.83,57.12l-.38,5.2,10.17-1.43.38-5.2Zm10.43-5,.36-4.82L31.45,48.74l-.36,4.83Z"/><path class="cls-1" d="M53.49,51.91l-1.88.27a21.33,21.33,0,0,0-2.87.52L49,49.1a22.1,22.1,0,0,0,2.89-.26l1.35-.19.13-1.74-.93.13a25.41,25.41,0,0,0-2.67.47L50,44a18.16,18.16,0,0,0,2.61-.22l1-.14,0-.42a10.63,10.63,0,0,0,0-2l3.82-.53a9.19,9.19,0,0,0-.3,2.08l0,.42,1-.13a16.64,16.64,0,0,0,2.39-.46L60.24,46a19.77,19.77,0,0,0-2.36.23l-1,.14-.13,1.74L57.84,48a18.1,18.1,0,0,0,2.58-.49l-.26,3.58a17.28,17.28,0,0,0-2.39.22l-.71.1-.15,2,.88-.12A13.86,13.86,0,0,0,60,52.87l-.25,3.46a11.92,11.92,0,0,0-2.14.17l-.88.13-.2,2.73a20.25,20.25,0,0,0,5.22-.26,77.71,77.71,0,0,0,9.67-1.88,17,17,0,0,0-1.22,4.08c-.93.13-.93.13-3.34.59l-4.5.64c-4.59.64-6.87.65-8.44,0a5.58,5.58,0,0,1-2.5-1.94,19.7,19.7,0,0,1-1.44,3.9,10.41,10.41,0,0,0-2.48-2.16,21.43,21.43,0,0,0,2.15-8.23c0-.3,0-.62,0-1l3.07.06a5.71,5.71,0,0,0-.16,1.06c-.07.72-.18,1.45-.34,2.39a3.37,3.37,0,0,0,.86,1.1Zm16.89-5.23a15.33,15.33,0,0,0-.09,2.54c-.78.06-1.32.11-2.69.31l-3,.43-.26,3.55c-.05.6.11.68,1.14.53,2.13-.3,2.23-.39,2.37-2.28l.09-1.19a11.26,11.26,0,0,0,3.39.63c-.27,2.62-.55,3.82-1.06,4.53-.73,1-1.94,1.4-6,2-1.76.25-2.56.27-3.07,0s-.7-.77-.58-2.31l.4-5.47c.09-1.21.11-1.88.11-2.77a21.18,21.18,0,0,0,2.41-.24l3.32-.47L67,43.64l-3.37.47a15.58,15.58,0,0,0-2.53.51L61.33,41a21.21,21.21,0,0,0,2.85-.25l4.18-.59a18.23,18.23,0,0,0,2.63-.5,16.12,16.12,0,0,0-.27,2.38Z"/><path class="cls-1" d="M82.21,49.27c0-.33,0-.84,0-1.21l4-.57a6.4,6.4,0,0,0-.18,1.21l-.06.75,3.94-.56a29.06,29.06,0,0,0,3.33-.62L93,52a29.71,29.71,0,0,0-3.17.3l-4.08.58-.19,2.58,6-.84A35.27,35.27,0,0,0,95,54l-.29,3.86a27.49,27.49,0,0,0-3.44.33l-15.4,2.17c-1.44.21-2.37.39-3.43.64l.28-3.86a26.88,26.88,0,0,0,3.54-.35L81.71,56l.19-2.58-3.67.51a31,31,0,0,0-3.19.6l.28-3.73a27.89,27.89,0,0,0,3.17-.3L82.15,50Zm-4.46-7.45c-1.25.18-2.3.38-3.44.63l.28-3.8A29.21,29.21,0,0,0,78,38.32l14.33-2a35.14,35.14,0,0,0,3.48-.64l-.28,3.8a29.76,29.76,0,0,0-3.29.32l-2.12.3A29.38,29.38,0,0,1,95,44.75l-3.26,2.63c-.55-.79-.68-1-1.12-1.57-3,.71-9.59,2.12-12.71,2.65-1.79.33-1.93.35-3,.62l-.21-3.73a9.63,9.63,0,0,0,1.63-.11l2-.29a24.47,24.47,0,0,0,2.07-3.51Zm6.82-1a31,31,0,0,1-2,3.44c2.87-.51,4.75-.85,5.74-1.06-.48-.42-.8-.68-1.65-1.34L89,40.24Z"/></g></g></svg>