<svg xmlns="http://www.w3.org/2000/svg" viewBox="0 0 131.12 59.31"><defs><style>.cls-1{fill:#fff;}</style></defs><title>Asset 4</title><g id="Layer_2" data-name="Layer 2"><g id="title"><path class="cls-1" d="M24.35,19.9a24.08,24.08,0,0,1-1,5.62l-1.69-.71a16.89,16.89,0,0,0,.95-4.91Zm3.57-.9c0-.3,0-.37-.05-.59l-.73.18-.4,5.47a12.36,12.36,0,0,0,0,2l-2.55.3a12.22,12.22,0,0,0,.24-2l.38-5.28c-1,.21-1.17.23-1.61.3a5.89,5.89,0,0,0-.72.17l-.06-2.49A8.85,8.85,0,0,0,24,17l.52-.74a13.8,13.8,0,0,0-2-2.36l1.26-2.37.52.51A17,17,0,0,0,25.5,9.22l2.2.58c-.13.23-.17.29-.34.61-.58,1.11-1.25,2.3-1.75,3.05a4.35,4.35,0,0,0,.38.48,25.87,25.87,0,0,0,1.74-3.11l1.62.76c0-.77.06-1,.06-1.71a13.62,13.62,0,0,0,1.9-.14l1.34-.16a7.39,7.39,0,0,0,.47-1.23l2.63-.06c-.21.47-.25.56-.45,1l1.78-.21A17.94,17.94,0,0,0,39,8.73c-.1.73-.16,1.28-.22,2.14l-.39,5.36c-.06.88-.09,1.42-.09,2.12-.62,0-.88,0-1.89.16l-2,.24a9.48,9.48,0,0,1,1.24.7l-1.21,1.72a12.7,12.7,0,0,0-1.4-1,2.6,2.6,0,0,0,0,.37l-.15,2c0,.27.06.31.46.27.58-.07.64-.19.73-1.47a5.58,5.58,0,0,0,1.8.47,11.28,11.28,0,0,0-.66-1.62l2-1.09a12.69,12.69,0,0,1,1.29,3.67l-2.19,1.42A13.35,13.35,0,0,0,36,22.47a3.79,3.79,0,0,1-.61,1.78c-.42.49-1.09.73-2.53.91a3.75,3.75,0,0,1-2.14-.1c-.21-.16-.27-.47-.23-1.06l.2-2.82a9.61,9.61,0,0,0,0-1.21l1.55-.19-.69-.3L32,19l-1.4.16c-.59.07-1.2.17-1.71.26a4.75,4.75,0,0,1,.07.68h0l1.75.58a15.15,15.15,0,0,1-1.5,4.46l-1.74-1a13,13,0,0,0,.86-1.89l-1,.29a19.45,19.45,0,0,0-.05-3.13L28.78,19a3.34,3.34,0,0,0,0-.43Zm1.39-6.82-.18.29c-.82,1.32-1.84,2.86-2.8,4.15.58-.09.7-.12,1.22-.22-.07-.35-.13-.54-.28-1.07l1.27-.65c.24.75.32,1.05.47,1.67Zm2.94,4.93a3.28,3.28,0,0,0-.84-.82A8,8,0,0,0,33.21,15a4.91,4.91,0,0,1-.4-.38c-.19.22-.36.42-.7.76a3.21,3.21,0,0,0-.9-.82L31,17.26Zm-1-2.75c.3-.26.35-.34.58-.56l-.51-.37Zm1-2.23c.25.17.31.21.49.35a5.18,5.18,0,0,0,.44-1.05l-1.74.21-.1,1.42Zm2.61,4.67L34.21,16a10.1,10.1,0,0,1-1,1Zm-1.11-3.48c.28.21.31.24.59.48a5.88,5.88,0,0,0,.46-.72l-1,.12Zm1-2.08a4.53,4.53,0,0,1-.2.49l.5-.06a2.43,2.43,0,0,0,.74-.18l.77.78L36.64,11Zm1.5,5.39.28-4a11.82,11.82,0,0,1-1.14,2c.11.13.41.41.88.87l-1.1,1.23Z"/><path class="cls-1" d="M46.36,12.74c.32,0,.43,0,.69,0a5,5,0,0,0-.89-1.42,18.76,18.76,0,0,0,2-.49,4.15,4.15,0,0,0-.58-.6l-.48.23a4.28,4.28,0,0,0-.79-1.27l-.47,6.51a13.77,13.77,0,0,0-.05,1.92l-2.47.3c.09-.56.13-.94.22-2.07l.1-1.43-.59.08a8.16,8.16,0,0,1-1.64,4,4.7,4.7,0,0,0-1.79-1.21,4.88,4.88,0,0,0,1.25-2.49L40,15l.17-2.33a15.68,15.68,0,0,0,2.43-.22l1.17-.14,0-.57L41.65,12a8.37,8.37,0,0,0-.92.14c0-.25,0-.41.07-.75L41,8.87a4.2,4.2,0,0,0,0-.7l2.33-.28a5.46,5.46,0,0,0-.08.71l-.1,1.32.8-.1L44,9.11a10.53,10.53,0,0,0,0-1.83l2.5-.3a9.79,9.79,0,0,0-.21,1.69,8.07,8.07,0,0,0,3.49-2.35l2.51.09c-.11.13-.11.13-.32.41-.06.08-.14.16-.27.31l2.37-.28c.28,0,.4,0,.91-.14l1.13,1.1A16.51,16.51,0,0,0,55,9a15.94,15.94,0,0,1-2.53,1.94l2.24-.27a9.31,9.31,0,0,0-.16,1.24h.11A6.39,6.39,0,0,0,56,11.59l-.16,2.24a8,8,0,0,0-1.32.05h-.1L54.29,15a1.74,1.74,0,0,1-.67,1.34,1.92,1.92,0,0,1-1,.38l.49.55a17.5,17.5,0,0,0,2.52-.43l-.17,2.29c-.52,0-.95,0-1.38.08l-3.9.47a8.56,8.56,0,0,0,5.06.61,4.72,4.72,0,0,0,.49-.07,7.83,7.83,0,0,0-1,2.64,11,11,0,0,1-4.38-.42,6.36,6.36,0,0,1-2.84-1.84,7.6,7.6,0,0,1-2.57,2.3A15.1,15.1,0,0,1,40,24.46a6.07,6.07,0,0,0-.83-2.35c2.77-.33,4.43-.88,5.59-1.84l-3.54.42c-.54.07-1.06.17-1.6.29l.16-2.33a12.68,12.68,0,0,0,2.53-.14l3.85-.46a3.89,3.89,0,0,0,.16-.82.54.54,0,0,0,0-.18l1.6-.19a6.06,6.06,0,0,0-1.29-1.3L48,14.65l-.22,0a7.82,7.82,0,0,0-1.6.32Zm2.5,4.33c-.06.29-.08.4-.14.67l2-.24a5.75,5.75,0,0,0-.75-.66l.68-.35a4.28,4.28,0,0,0-.35-1.5,6.42,6.42,0,0,0,1.21,0c.26,0,.41-.17.42-.38l0-.42-3.12.38A6.91,6.91,0,0,1,50.25,16Zm3.28-4.9a6,6,0,0,0,0-1.1,15.36,15.36,0,0,1-3.24,1.49ZM50.4,10a4.16,4.16,0,0,0-1-.82l-.47.33a3.6,3.6,0,0,1,.84.76A5,5,0,0,0,50.4,10ZM51,8.66a9.31,9.31,0,0,1,.8.63A10.39,10.39,0,0,0,53,8.42Z"/><path class="cls-1" d="M62.94,11.85a17.84,17.84,0,0,0-1.8.29l.07-.86a24.76,24.76,0,0,1-3,1.77,10.24,10.24,0,0,0-1.11-2.47,18.81,18.81,0,0,0,4.86-3A11.93,11.93,0,0,0,64.39,5l3-.36a7.06,7.06,0,0,0,2.08,2,10.6,10.6,0,0,0,4.5,1.8,17.22,17.22,0,0,0-1.4,3,14.87,14.87,0,0,1-2.91-1.17l-.06.91a15.94,15.94,0,0,0-1.81.15l-1.08.12-.08,1.17,4-.48a17.63,17.63,0,0,0,2.06-.33l-.19,2.64a15.76,15.76,0,0,0-2.08.14L69,14.71l2.19.54A27.23,27.23,0,0,1,69.65,18l.9-.11a20.55,20.55,0,0,0,2.18-.37l-.19,2.68c-.66,0-1.45.07-2.24.16l-11,1.33a22.32,22.32,0,0,0-2.38.39l.2-2.69a20.83,20.83,0,0,0,2.34-.17l.54-.06a8.51,8.51,0,0,0-1-2.43l2.3-1L60,15.79a18.81,18.81,0,0,0-2.1.36L58,13.5a14.18,14.18,0,0,0,2.1-.16l3.76-.45L64,11.73Zm.79,3.49-2.2.26a11.92,11.92,0,0,1,1.06,2.5l-2.22,1,3.11-.38ZM67.6,9a8.08,8.08,0,0,1-1.89-1.78,14.09,14.09,0,0,1-2.15,2.27Zm1.65,9-2.07-.48a12.3,12.3,0,0,0,1.47-2.76L66.42,15l-.24,3.34Z"/><path class="cls-1" d="M86.26,16.34l.63-.05c.31,0,.4-.12.42-.39l.25-3.45-10,1.2-.3,4.18A16.87,16.87,0,0,0,77.19,20l-2.79.33a16.19,16.19,0,0,0,.26-2.14L75,13.42c0-.55.06-1.09,0-1.62A19.08,19.08,0,0,0,77,11.64l11.66-1.39A14.81,14.81,0,0,0,90.38,10a13.69,13.69,0,0,0-.18,1.64l-.3,4.17c-.11,1.41-.26,1.82-.79,2.22a5.16,5.16,0,0,1-2.41.69l-1.36.13a6,6,0,0,0-.07-1.43l-.31,0-4.28.51-.05.68-2.54.31a10.55,10.55,0,0,0,.17-1.44L78.44,15a7.41,7.41,0,0,0,0-1c.42,0,.78,0,1.41-.11l5.38-.65A9.6,9.6,0,0,0,86.56,13a8.19,8.19,0,0,0-.13,1.08l-.15,2.13ZM81.75,3.8a4.43,4.43,0,0,0,0-1.1l2.93-.35a6.28,6.28,0,0,0-.16,1v.09l4.86-.58a12.94,12.94,0,0,0,1.92-.34L91.1,5a12.78,12.78,0,0,0-1.89.14L76.92,6.63a15.64,15.64,0,0,0-1.87.31l.18-2.46a16.81,16.81,0,0,0,2-.14ZM77.36,8.21a8.38,8.38,0,0,0,0-1.21c.52,0,.92,0,1.75-.15l8-1c.74-.09,1.15-.16,1.65-.25a8.6,8.6,0,0,0-.16,1.24l-.12,1.73a8.77,8.77,0,0,0,0,1.23c-.54,0-.94.06-1.7.15l-8,.95c-.73.09-1.17.16-1.72.26A8.25,8.25,0,0,0,77.23,10Zm2.47.94,6.09-.73,0-.71-6.09.73Zm1,6.94L84,15.71l0-.64-3.18.38Z"/><path class="cls-1" d="M100.5,13.52l-2.4.29c-.15,0-.43,0-.78.11L97,14l-.54.08.15-2a13.56,13.56,0,0,0,1.66-.12l2.4-.29,0-.57-2.25.27c-.54.06-1,.13-1.43.22l.14-2a9.88,9.88,0,0,0,1.42-.1l2.25-.26,0-.61-2.31.27a14.13,14.13,0,0,0-1.68.28L97,7c.45,0,.69,0,1.67-.14l.15,0a4.17,4.17,0,0,0-.35-.76l-.23,0c-.91.11-1.2.16-1.68.25l.13-1.73L95.17,6.32a14,14,0,0,0-2.85-3l2.1-2.17A16.23,16.23,0,0,1,97.34,4l-.29.3a12.15,12.15,0,0,0,1.35-.13l2.81-.33,0-.59-2.49.3a9.49,9.49,0,0,0-1.43.22l.15-2.09a12.11,12.11,0,0,0,1.73-.12l2.18-.26a6.5,6.5,0,0,0,0-.94L104.14,0A6.62,6.62,0,0,0,104,1l2.28-.27A16.17,16.17,0,0,0,108,.38l-.15,2.1c-.4,0-.82,0-1.41.11l-2.63.32,0,.59,3-.37a11.11,11.11,0,0,0,1.64-.25L108.32,5c-.47,0-.78,0-1.64.14l-.47.06c-.12.28-.28.58-.42.84l.47,0a16.34,16.34,0,0,0,1.66-.25l-.15,2.07a8.23,8.23,0,0,0-1.63.13l-2.65.31,0,.61,2.38-.29a9.2,9.2,0,0,0,1.42-.24l-.15,2c-.43,0-.86,0-1.4.12l-2.39.28,0,.57,2.77-.33a13.56,13.56,0,0,0,1.64-.27l-.15,2.08a14,14,0,0,0-1.63.12l-2.77.33-.06.84,1.31-.19a31.09,31.09,0,0,0,3.85-.73,12.47,12.47,0,0,0-.85,2.87c-1.46.23-3.94.56-6.3.85-4.25.51-5.23.37-6.43-.85a28.2,28.2,0,0,1-2.48,2.09l-.93-2.74a11.18,11.18,0,0,0,2.23-1.62l.24-3.38-.73.09a6.78,6.78,0,0,0-1.09.22l.2-2.7a8.72,8.72,0,0,0,1.44-.08l1.67-.2a10.82,10.82,0,0,0,1.34-.24,18.25,18.25,0,0,0-.21,2L96,13.63a1.66,1.66,0,0,0,1.38.88,14.57,14.57,0,0,0,3-.11Zm.63-7.73a4.68,4.68,0,0,1,.31.76l1.65-.2c.16-.34.27-.58.37-.84Z"/><path class="cls-1" d="M.34,38.62a16.07,16.07,0,0,0,2.93-.18l3.12-.37a24.78,24.78,0,0,0,3.05-.47C9.22,39,9.09,40,9,41.68L8,54.89a29,29,0,0,0-.08,3.78l-5.35.64a32.34,32.34,0,0,0,.47-3.83L4,42.63l-1,.12a27,27,0,0,0-3,.53Z"/><path class="cls-1" d="M28.1,41a2.06,2.06,0,0,0-2.62-1.76A4.35,4.35,0,0,0,22,41.84a10.29,10.29,0,0,0-.94,3.21,5.87,5.87,0,0,1,1.63-1.32,8.59,8.59,0,0,1,3.31-1c4.44-.53,7,1.86,6.73,6.19s-3.87,7.81-8.7,8.39c-2.56.31-4.65-.32-6-1.81-1.51-1.67-2.16-4.39-1.91-7.81a16.71,16.71,0,0,1,2.61-8.19A9.78,9.78,0,0,1,26,35.25c2.41-.29,4.36.25,5.58,1.53A6.25,6.25,0,0,1,33,39.4Zm-7,9.35c-.13,1.87,1.22,3,3.18,2.8A4.09,4.09,0,0,0,28,49.52c.14-1.94-1.05-3-3.16-2.72A3.92,3.92,0,0,0,21.12,50.39Z"/><path class="cls-1" d="M41,40.94c0,.13,0,.38-.13.82a7.48,7.48,0,0,1,4.06-1.69A5.94,5.94,0,0,1,50,41.5a5.84,5.84,0,0,1,1.48,4.83c-.35,4.83-3.65,8.08-8.85,8.7-3.1.37-5.45-.42-6.73-2.27a6.62,6.62,0,0,1-1-2.67l5-1.37c.3,1.61,1.27,2.27,3,2.05A4,4,0,0,0,46.63,47c.14-2-1.09-3.17-3.15-2.92a3.85,3.85,0,0,0-3.23,2.24l-4.53.09c.15-.77.27-1.38.4-2.1l1.23-7.94c.08-.53.15-1.14.24-2.1,1-.08,1.28-.11,2.45-.25l7.34-.88a30.56,30.56,0,0,0,4.07-.66l-.32,4.41a38.64,38.64,0,0,0-4,.31l-5.69.68Z"/><path class="cls-1" d="M58.44,52.59A5.05,5.05,0,0,1,57,55.89a5.9,5.9,0,0,1-2.54,1.53l-1-1.79a4.51,4.51,0,0,0,2-1,2.62,2.62,0,0,0,.81-1.79l-2.82.33.36-5.06,5-.6Z"/><path class="cls-1" d="M63.34,50.15a6.17,6.17,0,0,1-1.59-2.58,15.74,15.74,0,0,1-.54-5.66,17.16,17.16,0,0,1,2-7.16,10,10,0,0,1,7.43-4.84,6.94,6.94,0,0,1,5.8,1.63,6.17,6.17,0,0,1,1.59,2.58,16.29,16.29,0,0,1,.54,5.68A17.41,17.41,0,0,1,76.56,47a10,10,0,0,1-7.45,4.8A6.79,6.79,0,0,1,63.34,50.15Zm2.92-9c-.33,4.51.76,6.68,3.19,6.39s3.79-2.71,4.12-7.19c.31-4.31-.81-6.43-3.19-6.14S66.55,37,66.26,41.11Z"/><path class="cls-1" d="M82.32,47.88a6.23,6.23,0,0,1-1.59-2.58,15.79,15.79,0,0,1-.54-5.66,17.16,17.16,0,0,1,2-7.17,10,10,0,0,1,7.43-4.84,6.94,6.94,0,0,1,5.79,1.63,6.1,6.1,0,0,1,1.59,2.59,15.81,15.81,0,0,1,.54,5.68,17.3,17.3,0,0,1-2,7.19,10,10,0,0,1-7.45,4.79A6.76,6.76,0,0,1,82.32,47.88Zm2.92-9.05c-.33,4.52.75,6.68,3.18,6.39s3.8-2.7,4.12-7.19c.32-4.31-.8-6.42-3.18-6.14S85.53,34.73,85.24,38.83Z"/><path class="cls-1" d="M101.3,45.6A6.07,6.07,0,0,1,99.71,43a15.74,15.74,0,0,1-.54-5.66,17.16,17.16,0,0,1,2-7.16,10,10,0,0,1,7.43-4.84A6.88,6.88,0,0,1,114.44,27,6.07,6.07,0,0,1,116,29.57a15.83,15.83,0,0,1,.54,5.68,17.26,17.26,0,0,1-2,7.19,10.08,10.08,0,0,1-7.45,4.8A6.77,6.77,0,0,1,101.3,45.6Zm2.91-9c-.32,4.51.76,6.68,3.19,6.39s3.8-2.71,4.12-7.19c.31-4.31-.8-6.43-3.18-6.14S104.51,32.45,104.21,36.56Z"/><path class="cls-1" d="M119.53,38.29a16.13,16.13,0,0,0-1.74.29l.17-2.34a15.39,15.39,0,0,0,1.73-.12L129.38,35a15.66,15.66,0,0,0,1.74-.3L131,37a12.35,12.35,0,0,0-1.72.12l-2,.24-.36,4.91c0,.34.07.39.73.31s.91-.23,1-.72a18.28,18.28,0,0,0,.29-2.11,5.5,5.5,0,0,0,2.09.43,8.54,8.54,0,0,1-.73,3.25c-.41.76-1.1,1-3.18,1.29s-2.66,0-2.57-1.19l.42-5.9-1.56.19a12.71,12.71,0,0,1-.92,4.14,8.28,8.28,0,0,1-4.11,4.13,7.44,7.44,0,0,0-1.19-2,6.26,6.26,0,0,0,3.24-2.82,8.69,8.69,0,0,0,.74-3.23Zm10.34-4.83a13.53,13.53,0,0,0-1.51.11l-7.41.88c-.63.08-1.09.17-1.52.26l.17-2.33a12.87,12.87,0,0,0,1.58-.1l7.27-.88a10.68,10.68,0,0,0,1.59-.27Z"/></g></g></svg>