<svg xmlns="http://www.w3.org/2000/svg" viewBox="0 0 111.11 73.99"><defs><style>.cls-1{fill:#fff;}</style></defs><title>txt-demo-day</title><g id="Layer_2" data-name="Layer 2"><g id="title"><path class="cls-1" d="M31.15,30.13,26.36,63.76l-9.48-1.3,3.14-22a29.42,29.42,0,0,1-4.84,2.16,35.79,35.79,0,0,1-5.69,1.29l1.08-7.53a23.29,23.29,0,0,0,7.94-2.61,15.14,15.14,0,0,0,4.89-4.67Z"/><path class="cls-1" d="M64,68.91l-28.1-3.85a17.3,17.3,0,0,1,4-7.27q3-3.27,10.4-7.24a27.83,27.83,0,0,0,5.92-3.83,5.11,5.11,0,0,0,1.57-2.8A3.49,3.49,0,0,0,57,41.18a4.45,4.45,0,0,0-5.8-.76,6.84,6.84,0,0,0-2.09,3.7l-9.28-2a14.64,14.64,0,0,1,2.89-5.78,9.5,9.5,0,0,1,4.63-2.77,19.35,19.35,0,0,1,7.58-.15,21.8,21.8,0,0,1,7.54,2.16,9.45,9.45,0,0,1,3.84,4,8.92,8.92,0,0,1,.84,5.35,10.51,10.51,0,0,1-2.63,5.52,24.93,24.93,0,0,1-7.42,5.15q-3.1,1.53-4.17,2.16c-.71.43-1.55,1-2.53,1.7l14.63,2Z"/><path class="cls-1" d="M79.27,36.73l4.78.66-13.34,33L66,69.76Z"/><path class="cls-1" d="M89.22,54.26a9,9,0,0,1-2.86-3,7.6,7.6,0,0,1-.74-4.66,8,8,0,0,1,4.95-6.24,15,15,0,0,1,8.5-.91c4.5.62,7.72,1.92,9.63,3.9a7.78,7.78,0,0,1,2.32,6.8,7.47,7.47,0,0,1-1.88,4,10.63,10.63,0,0,1-3.43,2.38,9.51,9.51,0,0,1,3.6,4,8.64,8.64,0,0,1,.67,4.88,10.17,10.17,0,0,1-5.14,7.41,11.92,11.92,0,0,1-4.46,1.15,25.23,25.23,0,0,1-5.45-.19,21.23,21.23,0,0,1-8-2.36,9.18,9.18,0,0,1-3.78-4.24,10.16,10.16,0,0,1-.7-5.59,8.62,8.62,0,0,1,2.08-4.74A8.88,8.88,0,0,1,89.22,54.26Zm2.6,8.24a4.88,4.88,0,0,0,.85,3.76,4.23,4.23,0,0,0,2.9,1.81,4.09,4.09,0,0,0,3.22-1,5.07,5.07,0,0,0,1.84-3.39,5,5,0,0,0-.83-3.77,4.22,4.22,0,0,0-2.92-1.83,4.12,4.12,0,0,0-3.24.94A5.1,5.1,0,0,0,91.82,62.5Zm2.53-14.16a3.68,3.68,0,0,0,.7,2.91,4.06,4.06,0,0,0,2.76,1.45A3.59,3.59,0,0,0,100.6,52,3.64,3.64,0,0,0,102,49.48a3.69,3.69,0,0,0-3.29-4.38,3.82,3.82,0,0,0-2.92.67A3.71,3.71,0,0,0,94.35,48.34Z"/><path class="cls-1" d="M1.78,0,7.65.8a7.32,7.32,0,0,1,2.74.85A4.54,4.54,0,0,1,12,3.22a5.49,5.49,0,0,1,.73,2.14,9.31,9.31,0,0,1,0,2.47,8.42,8.42,0,0,1-.92,3.05,5.12,5.12,0,0,1-1.55,1.68,4.31,4.31,0,0,1-1.92.75,9.22,9.22,0,0,1-2.4,0L0,12.53ZM5.33,3.38l-1,6.84,1,.14a4.25,4.25,0,0,0,1.8,0,1.87,1.87,0,0,0,1-.83,5.82,5.82,0,0,0,.61-2.13A4.13,4.13,0,0,0,8.4,4.55a2.83,2.83,0,0,0-2.09-1Z"/><path class="cls-1" d="M24.39,12.13l-7.11-1a2.22,2.22,0,0,0,.29,1.31,1.7,1.7,0,0,0,1.26.78,2.23,2.23,0,0,0,1-.12,2.6,2.6,0,0,0,.71-.49l3.45.79a5.08,5.08,0,0,1-2.22,1.7,7.29,7.29,0,0,1-3.33.15,6.82,6.82,0,0,1-2.83-.91,4.16,4.16,0,0,1-1.51-1.85,4.74,4.74,0,0,1-.32-2.7,4.55,4.55,0,0,1,1.88-3.25,5.39,5.39,0,0,1,4-.79,7,7,0,0,1,3.06,1,4.09,4.09,0,0,1,1.51,2,6.24,6.24,0,0,1,.18,3ZM21,10a2.32,2.32,0,0,0-.34-1.52,1.6,1.6,0,0,0-1.12-.6,1.64,1.64,0,0,0-1.45.47,2.37,2.37,0,0,0-.58,1.17Z"/><path class="cls-1" d="M26.82,7l3.31.46-.19,1.32a4.74,4.74,0,0,1,1.62-1,4.05,4.05,0,0,1,1.8-.11,3.37,3.37,0,0,1,1.7.63A2.86,2.86,0,0,1,36,9.56a5.53,5.53,0,0,1,1.69-1,4,4,0,0,1,1.74-.08,3.05,3.05,0,0,1,2.2,1.18A3.78,3.78,0,0,1,42,12.48l-.81,5.7-3.55-.49.73-5.17a1.43,1.43,0,0,0-.11-.94,1.08,1.08,0,0,0-.82-.6,1.31,1.31,0,0,0-1.07.31,2.22,2.22,0,0,0-.59,1.37l-.66,4.69-3.56-.49.71-5a3.31,3.31,0,0,0,0-.82,1.1,1.1,0,0,0-.32-.61,1,1,0,0,0-.62-.29,1.26,1.26,0,0,0-1.07.31,2.27,2.27,0,0,0-.61,1.43l-.66,4.64L25.53,16Z"/><path class="cls-1" d="M43.56,13.9a4.54,4.54,0,0,1,1.91-3.23,5.46,5.46,0,0,1,4.05-.81,5.38,5.38,0,0,1,4,2.15,4.61,4.61,0,0,1,.7,3.3,4.59,4.59,0,0,1-1.91,3.23,5.56,5.56,0,0,1-4.11.8,5.64,5.64,0,0,1-3.45-1.6A4.44,4.44,0,0,1,43.56,13.9Zm3.55.48a2.73,2.73,0,0,0,.25,1.86,1.67,1.67,0,0,0,2.52.35,2.81,2.81,0,0,0,.75-1.77A2.64,2.64,0,0,0,50.38,13a1.51,1.51,0,0,0-1.14-.74,1.6,1.6,0,0,0-1.37.41A2.73,2.73,0,0,0,47.11,14.38Z"/><path class="cls-1" d="M63.28,8.43l5.87.8a7.15,7.15,0,0,1,2.73.85,4.57,4.57,0,0,1,1.58,1.57,5.48,5.48,0,0,1,.72,2.14,9.31,9.31,0,0,1,0,2.47,8.25,8.25,0,0,1-.91,3A5.26,5.26,0,0,1,71.68,21a4.33,4.33,0,0,1-1.92.75,9.22,9.22,0,0,1-2.4,0L61.49,21Zm3.54,3.38-1,6.84,1,.14a4.22,4.22,0,0,0,1.79,0,1.85,1.85,0,0,0,1-.83,5.85,5.85,0,0,0,.6-2.13A4.21,4.21,0,0,0,69.9,13a2.85,2.85,0,0,0-2.09-1Z"/><path class="cls-1" d="M79.2,17.13l-3.34-.82A3.72,3.72,0,0,1,76.61,15a3.08,3.08,0,0,1,1.16-.73,4.61,4.61,0,0,1,1.4-.22,10.17,10.17,0,0,1,1.87.11,15.26,15.26,0,0,1,2.54.52,3.38,3.38,0,0,1,1.51,1,2.69,2.69,0,0,1,.56,1.19,4.1,4.1,0,0,1,.07,1.38l-.58,4a4.94,4.94,0,0,0-.06,1,4.51,4.51,0,0,0,.23,1L82,23.77a3.1,3.1,0,0,1-.18-.57,3,3,0,0,1,0-.6,4.56,4.56,0,0,1-1.52.75,5.89,5.89,0,0,1-2.24.08,3.71,3.71,0,0,1-2.41-1.1,2.35,2.35,0,0,1-.59-2,2.44,2.44,0,0,1,.86-1.62,4.29,4.29,0,0,1,2.42-.67c1.37-.08,2.26-.15,2.67-.2a11.82,11.82,0,0,0,1.31-.24,1.22,1.22,0,0,0-.14-.94,1.41,1.41,0,0,0-.91-.38,2.58,2.58,0,0,0-1.35.09A1.45,1.45,0,0,0,79.2,17.13ZM82,19.38q-.77.15-1.59.24A3.5,3.5,0,0,0,79,20a.88.88,0,0,0-.19,1.31,1.24,1.24,0,0,0,.82.38,2.33,2.33,0,0,0,1.14-.13,1.73,1.73,0,0,0,.82-.59,2.27,2.27,0,0,0,.36-1Z"/><path class="cls-1" d="M87.27,15.24l3.74.51,1,6.3,2.63-5.79,3.5.47-5.06,9.2A5.78,5.78,0,0,1,91.54,28a4.17,4.17,0,0,1-2.93.44,21.26,21.26,0,0,1-2.35-.53l.07-2.47a5.93,5.93,0,0,0,1.67.48,1.72,1.72,0,0,0,1.06-.15,2.2,2.2,0,0,0,.8-.92Z"/></g></g></svg>